<svg width="695" height="118" viewBox="0 0 695 118" fill="none" xmlns="http://www.w3.org/2000/svg">
<path fill-rule="evenodd" clip-rule="evenodd" d="M240.664 17.3027H226.265L226.314 75.5988C226.395 90.392 233.684 99.1033 249.425 99.1939C256.109 99.1768 260.126 96.961 261.779 93.406V84.2245C259.184 85.3948 255.658 85.9188 251.312 85.9188C248.041 85.9188 245.321 85.079 243.448 83.0468C241.575 81.0147 240.664 77.9542 240.664 73.6744V46.3945H253.273C259.441 46.3945 262.017 42.3742 262.044 39.4019V33.4939H240.664V17.3027ZM188.46 33.4939C169.042 33.5135 160.575 47.0825 160.524 60.4262V98.0946H174.991V61.501C174.991 56.7928 176.191 53.0125 178.345 50.4C180.5 47.7876 183.587 46.3847 187.16 46.3945C191.344 46.3945 194.75 47.6309 197.098 50.3511C199.446 53.0712 200.633 57.1674 200.633 62.6836V98.0946H215.079V61.2684C215.059 43.3364 203.104 33.5429 188.46 33.4939ZM134.676 98.0946H149.224V17.2979H134.676V98.0946ZM326.338 57.9876V98.0946H340.909V60.8791C340.909 55.8893 341.888 52.2926 343.874 49.9177C345.859 47.5428 348.851 46.4753 352.492 46.49C353.82 46.4856 355.146 46.5954 356.456 46.8181V35.0119C354.622 34.0669 352.22 33.467 349.081 33.467C332.763 33.4841 326.39 45.2952 326.338 57.9876ZM301.174 61.3174C298.294 62.3457 293.674 62.7448 286.18 62.7448H278.433L278.477 62.0617L278.592 59.8998C278.935 52.2216 284.503 45.5547 292.548 45.5547C296.27 45.5547 299.403 46.3847 301.673 48.1108C303.943 49.8369 305.191 52.5057 305.191 55.8697C305.238 58.3255 304.07 60.3233 301.171 61.3174H301.174ZM293.936 33.4939C276.168 33.5135 263.576 46.5977 263.522 67.8301C263.522 87.143 278.626 99.1695 294.056 99.1939C303.238 99.1939 308.94 97.7249 312.257 94.9558V84.2245C307.535 86.6019 301.942 87.3609 296.989 87.3609C287.485 87.3878 279.836 82.0748 278.59 73.5495L278.482 72.793H289.585C300.03 72.793 307.383 71.8308 312.025 69.4803C316.667 67.1299 318.662 63.5601 318.687 57.7991C318.687 42.788 306.817 33.5135 293.936 33.4939Z" fill="#00ADEE"/>
<path fill-rule="evenodd" clip-rule="evenodd" d="M429.2 62.7448L429.251 62.0592L429.354 59.8997C429.707 52.2216 435.262 45.5546 443.28 45.5546C447.039 45.5546 450.165 46.3847 452.418 48.1108C454.67 49.8369 455.953 52.5056 455.939 55.8697C456.002 58.3181 454.839 60.3233 451.935 61.3174C449.032 62.3114 444.448 62.7448 436.939 62.7448H429.2ZM462.787 69.468C467.409 67.0882 469.427 63.5478 469.451 57.7868C469.451 42.788 457.584 33.5135 444.708 33.4939C426.937 33.5135 414.348 46.5952 414.294 67.8301C414.294 87.1429 429.398 99.1694 444.813 99.1939C453.997 99.1939 459.712 97.7249 463.032 94.9557V84.2245C458.301 86.6018 452.709 87.3608 447.761 87.3608C438.249 87.3878 430.6 82.0748 429.354 73.5471L429.251 72.7929H440.355C450.787 72.7881 458.167 71.8185 462.787 69.468Z" fill="#00ADEE"/>
<path fill-rule="evenodd" clip-rule="evenodd" d="M603.39 57.9876V98.0947H617.975V60.8792C617.975 55.8894 618.955 52.2927 620.948 49.9178C622.941 47.5428 625.93 46.4729 629.563 46.49C630.892 46.4851 632.218 46.5949 633.527 46.8181V35.012C631.696 34.0669 629.294 33.467 626.148 33.467C609.832 33.4915 603.459 45.3074 603.39 57.995" fill="#00ADEE"/>
<path fill-rule="evenodd" clip-rule="evenodd" d="M383.05 98.9442C372.419 98.9442 364.484 93.0069 364.484 86.6019V79.4869H365.023C368.147 82.633 375.551 85.4365 382.387 85.4365C389.47 85.4365 392.895 83.2207 392.895 78.5467C392.895 74.9378 390.856 73.1994 380.876 71.679C368.666 69.8157 362.78 64.5786 362.78 55.0177C362.78 43.2409 372.52 33.2271 387.315 33.2271C400.421 33.2271 405.764 40.56 405.764 46.6222V52.562H405.23C402.219 49.3056 395.586 46.7519 388.723 46.7519C379.909 46.7519 377.14 49.6484 377.14 53.7347C377.14 56.8858 378.854 58.1688 388.723 59.9096C400.72 62.0152 407.152 67.7199 407.152 77.7436C407.152 91.0286 398.583 98.9466 383.053 98.9466" fill="#00ADEE"/>
<path fill-rule="evenodd" clip-rule="evenodd" d="M490.664 63.4842C490.664 71.7279 495.316 77.8489 502.25 77.8489C509.499 77.8489 514.702 71.9728 514.702 61.8389C514.702 51.9548 510.138 47.1167 503.773 47.1167C496.308 47.1167 490.664 53.9551 490.664 63.4842ZM529.153 80.1332C529.256 82.6943 529.383 86.073 529.383 88.1688C529.383 103.902 519.734 118 501.077 118C489.171 118 481.025 111.72 481.025 104.257V97.1569H481.664C485.109 101.113 491.736 103.914 500.012 103.914C510.393 103.914 515.106 98.5598 515.106 89.4689C515.106 88.5484 515.106 87.2654 515.006 86.2003C515.006 85.2773 514.908 83.6369 514.908 83.0664V81.5558C513.718 86.0902 508.253 90.8596 500.012 90.8596C485.953 90.8596 475.991 80.2557 475.991 65.4454C475.991 47.7337 486.695 33.3984 505.354 33.3984C519.734 33.3984 528.937 44.8226 528.937 60.9134V71.6324C528.937 73.7307 529.043 77.3372 529.153 80.1406" fill="#00ADEE"/>
<path fill-rule="evenodd" clip-rule="evenodd" d="M664.771 46.4092C655.982 46.4092 651.511 54.1804 651.511 64.9924C651.511 77.9689 655.982 85.7621 666.118 85.7621C675.03 85.7621 679.376 77.9762 679.376 67.2939C679.376 54.1804 674.802 46.4092 664.771 46.4092ZM666.101 33.2222C683.847 33.2222 694.054 48.3654 694.054 65.0512C694.054 83.9258 683.847 98.954 664.781 98.954C647.03 98.954 636.825 83.9258 636.825 67.2621C636.825 48.3752 647.03 33.2295 666.101 33.2295" fill="#00ADEE"/>
<path fill-rule="evenodd" clip-rule="evenodd" d="M565.604 99.3825C584.947 99.3506 593.401 85.7449 593.44 72.3621V34.559H579.036V71.2848C579.036 76.0028 577.824 79.7929 575.682 82.4102C573.539 85.0276 570.45 86.4476 566.895 86.4403C562.732 86.4403 559.305 85.1892 556.981 82.4592C554.658 79.7293 553.463 75.6233 553.463 70.0826V34.5541H539.061V71.5247C539.096 89.5326 550.995 99.3531 565.614 99.3923" fill="#00ADEE"/>
<path fill-rule="evenodd" clip-rule="evenodd" d="M86.5309 83.2574L26.3667 94.3682V32.3187L86.5309 21.2079V83.2574ZM15.0747 0C6.7502 0 0 6.93138 0 15.4787V115.358H97.818C106.157 115.358 112.905 108.422 112.905 99.8648L112.917 0H15.0747Z" fill="#0855C4"/>
</svg>
